<?xml version='1.0' encoding='UTF-8'?>
<svg x="0px" y="0px" viewBox="0 0 32 32" version="1.1" xmlns="http://www.w3.org/2000/svg" xmlns:xlink="http://www.w3.org/1999/xlink" xml:space="preserve" id="Слой_1">
  <g id="Cut">
    <path d="M11.8,15.5l2.8-3.1L7,4C5.8,5.2,5.7,7,6.6,8.3L11.8,15.5z" fill="#1177D7" class="Blue" />
    <path d="M29.9,24.2c-0.3-1.9-1.8-3.6-3.7-4c-1.5-0.4-2.8,0-3.9,0.7l-1.9-2.1l-1.1,1.6l1.5,2c-0.7,1.1-1,2.4-0.6,3.9   c0.5,1.9,2.1,3.4,4.1,3.7C27.6,30.4,30.5,27.6,29.9,24.2z M25,28c-1.7,0-3-1.3-3-3s1.3-3,3-3s3,1.3,3,3S26.7,28,25,28z" fill="#039C23" class="Green" />
    <path d="M25,4L11.6,18.7l1.2,1.6L13,20h4l8.4-11.7C26.3,7,26.2,5.2,25,4z" fill="#1177D7" class="Blue" />
    <path d="M9.7,20.8c-1.1-0.7-2.5-1-3.9-0.7c-1.9,0.5-3.4,2.1-3.7,4c-0.5,3.4,2.3,6.2,5.7,5.8c2-0.3,3.6-1.8,4.1-3.7   c0.4-1.5,0.1-2.8-0.6-3.9l1.5-2l-1.2-1.6L9.7,20.8z M7,28c-1.7,0-3-1.3-3-3s1.3-3,3-3s3,1.3,3,3S8.7,28,7,28z" fill="#039C23" class="Green" />
  </g>
</svg>