<?xml version='1.0' encoding='UTF-8'?>
<svg x="0px" y="0px" viewBox="0 0 32 32" version="1.1" xmlns="http://www.w3.org/2000/svg" xmlns:xlink="http://www.w3.org/1999/xlink" xml:space="preserve" id="Слой_1">
  <g id="Слой_2">
    <path d="M30,16l-2,10c-0.2,0.9-0.4,1.6-1,2l0,0h-1l0,0l0,0H15.9L13,26h-1v-9l6-6l2-3c0-0.1,0,0.1,0,0   c0-1.1,0.9-2,2-2c1.1,0,2,0.9,2,2c0,0.3,0-0.3,0,0c0,0,0,0,0,1s-2,5-2,5h7l0,0C29.6,14.3,30,15.2,30,16z" fill="#FFB115" class="Yellow" />
    <path d="M4,12h8v16H4V12z" fill="#727272" class="Black" />
    <path d="M8,24h2v2H8V24z" fill="#FFFFFF" class="White" />
    <path d="M30,16l-2,10c-0.2,0.9-0.4,1.6-1,2l0,0h-1l0,0l0,0H15.9L13,26h-1v-9l6-6l2-3c0-0.1,0,0.1,0,0   c0-1.1,0.9-2,2-2c1.1,0,2,0.9,2,2c0,0.3,0-0.3,0,0c0,0,0,0,0,1s-2,5-2,5h7l0,0C29.6,14.3,30,15.2,30,16z" fill="#FFB115" class="Yellow" />
    <path d="M4,12h8v16H4V12z" fill="#D11C1C" class="Red" />
    <path d="M8,24h2v2H8V24z" fill="#FFFFFF" class="White" />
  </g>
</svg>